<svg width="200" height="200" viewBox="0 0 200 200" fill="none" xmlns="http://www.w3.org/2000/svg">
<rect width="200" height="200" fill="#181B23"/>
<path d="M46.8594 113.016C46.8594 109.781 47.9375 107.156 50.0938 105.141C52.2969 103.125 55.0391 102.117 58.3203 102.117C61.6484 102.117 64.3906 103.125 66.5469 105.141C68.75 107.156 69.8516 109.781 69.8516 113.016C69.8516 116.203 68.7734 118.805 66.6172 120.82C64.4609 122.789 61.6953 123.773 58.3203 123.773C54.9922 123.773 52.25 122.789 50.0938 120.82C47.9375 118.805 46.8594 116.203 46.8594 113.016Z" fill="#D53F8C"/>
<path d="M156.195 85.6641C156.195 97.3828 153.523 106.781 148.18 113.859C142.883 120.891 135.711 124.406 126.664 124.406C118.977 124.406 112.766 121.734 108.031 116.391V152.25H87.7109V46.9219H106.555L107.258 54.375C112.18 48.4688 118.602 45.5156 126.523 45.5156C135.898 45.5156 143.188 48.9844 148.391 55.9219C153.594 62.8594 156.195 72.4219 156.195 84.6094V85.6641ZM135.875 84.1875C135.875 77.1094 134.609 71.6484 132.078 67.8047C129.594 63.9609 125.961 62.0391 121.18 62.0391C114.805 62.0391 110.422 64.4766 108.031 69.3516V100.5C110.516 105.516 114.945 108.023 121.32 108.023C131.023 108.023 135.875 100.078 135.875 84.1875Z" fill="white"/>
</svg>
